<svg aria-hidden="true" style="position: absolute; width: 0; height: 0; overflow: hidden;" version="1.1" xmlns="http://www.w3.org/2000/svg" xmlns:xlink="http://www.w3.org/1999/xlink">
<defs>
<symbol id="icon-access_time" viewBox="0 0 24 24">
<path d="M12.516 6.984v5.25l4.5 2.672-0.75 1.266-5.25-3.188v-6h1.5zM12 20.016q3.281 0 5.648-2.367t2.367-5.648-2.367-5.648-5.648-2.367-5.648 2.367-2.367 5.648 2.367 5.648 5.648 2.367zM12 2.016q4.125 0 7.055 2.93t2.93 7.055-2.93 7.055-7.055 2.93-7.055-2.93-2.93-7.055 2.93-7.055 7.055-2.93z"></path>
</symbol>
<symbol id="icon-keyboard_arrow_down" viewBox="0 0 24 24">
<path d="M7.406 8.578l4.594 4.594 4.594-4.594 1.406 1.406-6 6-6-6z"></path>
</symbol>
<symbol id="icon-menu" viewBox="0 0 24 24">
<path d="M3 6h18v2.016h-18v-2.016zM3 12.984v-1.969h18v1.969h-18zM3 18v-2.016h18v2.016h-18z"></path>
</symbol>
<symbol id="icon-person_outline" viewBox="0 0 24 24">
<path d="M12 12.984q1.5 0 3.281 0.422t3.258 1.406 1.477 2.203v3h-16.031v-3q0-1.219 1.477-2.203t3.258-1.406 3.281-0.422zM12 3.984q1.641 0 2.813 1.195t1.172 2.836-1.172 2.813-2.813 1.172-2.813-1.172-1.172-2.813 1.172-2.836 2.813-1.195zM12 14.906q-2.063 0-4.078 0.773t-2.016 1.336v1.078h12.188v-1.078q0-0.563-2.016-1.336t-4.078-0.773zM12 5.906q-0.891 0-1.5 0.609t-0.609 1.5 0.609 1.477 1.5 0.586 1.5-0.586 0.609-1.477-0.609-1.5-1.5-0.609z"></path>
</symbol>
<symbol id="icon-whatshot" viewBox="0 0 24 24">
<path d="M11.719 18.984q2.016 0 3.398-1.383t1.383-3.398q0-2.063-0.563-4.031-1.453 1.922-4.641 2.578-2.813 0.609-2.813 3.094 0 1.313 0.938 2.227t2.297 0.914zM13.5 0.656q3 2.438 4.758 5.93t1.758 7.43q0 3.281-2.344 5.625t-5.672 2.344-5.672-2.344-2.344-5.625q0-5.063 3.234-8.906v0.375q0 1.547 1.031 2.625t2.578 1.078q1.5 0 2.461-1.055t0.961-2.648q0-0.938-0.188-2.156t-0.375-1.922z"></path>
</symbol>
<symbol id="icon-star" viewBox="0 0 24 24">
<path d="M12 17.25l-6.188 3.75 1.641-7.031-5.438-4.734 7.172-0.609 2.813-6.609 2.813 6.609 7.172 0.609-5.438 4.734 1.641 7.031z"></path>
</symbol>
<symbol id="icon-star_half" viewBox="0 0 24 24">
<path d="M12 15.422l3.75 2.25-0.984-4.266 3.328-2.906-4.406-0.375-1.688-4.031v9.328zM21.984 9.234l-5.438 4.734 1.641 7.031-6.188-3.75-6.188 3.75 1.641-7.031-5.438-4.734 7.172-0.609 2.813-6.609 2.813 6.609z"></path>
</symbol>
<symbol id="icon-star_outline" viewBox="0 0 24 24">
<path d="M12 15.422l3.75 2.25-0.984-4.266 3.328-2.906-4.406-0.375-1.688-4.031-1.688 4.031-4.406 0.375 3.328 2.906-0.984 4.266zM21.984 9.234l-5.438 4.734 1.641 7.031-6.188-3.75-6.188 3.75 1.641-7.031-5.438-4.734 7.172-0.609 2.813-6.609 2.813 6.609z"></path>
</symbol>
<symbol id="icon-check_circle" viewBox="0 0 24 24">
<path d="M9.984 17.016l9-9-1.406-1.453-7.594 7.594-3.563-3.563-1.406 1.406zM12 2.016q4.125 0 7.055 2.93t2.93 7.055-2.93 7.055-7.055 2.93-7.055-2.93-2.93-7.055 2.93-7.055 7.055-2.93z"></path>
</symbol>
<symbol id="icon-search" viewBox="0 0 24 24">
<path d="M9.516 14.016q1.875 0 3.188-1.313t1.313-3.188-1.313-3.188-3.188-1.313-3.188 1.313-1.313 3.188 1.313 3.188 3.188 1.313zM15.516 14.016l4.969 4.969-1.5 1.5-4.969-4.969v-0.797l-0.281-0.281q-1.781 1.547-4.219 1.547-2.719 0-4.617-1.875t-1.898-4.594 1.898-4.617 4.617-1.898 4.594 1.898 1.875 4.617q0 0.984-0.469 2.227t-1.078 1.992l0.281 0.281h0.797z"></path>
</symbol>
<symbol id="icon-arrow_right_alt" viewBox="0 0 24 24">
<path d="M16.031 11.016v-3l3.984 3.984-3.984 3.984v-3h-12.047v-1.969h12.047z"></path>
</symbol>
</defs>
</svg>
